<svg xmlns="http://www.w3.org/2000/svg" viewBox="0 0 256 256">
  <defs>
    <radialGradient id="dinioFlashCore" cx="50%" cy="50%" r="50%">
      <stop offset="0%" stop-color="#fff7fd"/>
      <stop offset="38%" stop-color="#ffd0f6"/>
      <stop offset="74%" stop-color="#ff7bcf"/>
      <stop offset="100%" stop-color="#ff3bb5" stop-opacity="0"/>
    </radialGradient>
  </defs>
  <g fill="none" fill-rule="evenodd">
    <circle cx="110" cy="128" r="48" fill="url(#dinioFlashCore)"/>
    <path d="M46 128c34-12 67-40 108-58-11 20-19 34-19 44s8 24 19 44c-41-18-74-46-108-58Z" fill="#ff7bcf" fill-opacity=".82"/>
    <path d="M92 128c22-8 44-23 70-34-7 12-11 22-11 34s4 22 11 34c-26-11-48-26-70-34Z" fill="#fff2fb" fill-opacity=".92"/>
    <path d="M166 96c18-15 31-21 40-18-6 12-6 22 0 30-11 3-24-3-40-12Z" fill="#ffc0ec" fill-opacity=".78"/>
    <path d="M166 160c18 15 31 21 40 18-6-12-6-22 0-30-11-3-24 3-40 12Z" fill="#ffc0ec" fill-opacity=".78"/>
  </g>
</svg>
