<svg xmlns="http://www.w3.org/2000/svg" width="180" height="220" viewBox="0 0 180 220">
  <rect width="180" height="220" rx="24" fill="#fef3c7"/>
  <path d="M90 28c34 0 58 24 58 58 0 25-13 45-34 54l12 48H54l12-48c-21-9-34-29-34-54 0-34 24-58 58-58Z" fill="#a3e635" stroke="#111827" stroke-width="8"/>
  <path d="M68 80l18 18M86 80L68 98M104 80l18 18M122 80l-18 18" stroke="#111827" stroke-width="7" stroke-linecap="round"/>
  <path d="M66 125c16 11 32 11 48 0" fill="none" stroke="#111827" stroke-width="7" stroke-linecap="round"/>
  <text x="90" y="207" text-anchor="middle" font-family="Arial, sans-serif" font-size="22" font-weight="700" fill="#111827">PLAYER</text>
</svg>
