<svg xmlns="http://www.w3.org/2000/svg" viewBox="0 0 96 96">
  <g fill="none" stroke="#111111" stroke-linecap="round" stroke-linejoin="round" stroke-width="4">
    <path d="M24 66c0-26 13-42 24-42s24 16 24 42c0 11-7 18-15 18H39c-8 0-15-7-15-18Z" fill="#ff7c53"/>
    <path d="M33 28 27 14l14 7"/>
    <path d="M63 28 69 14 55 7"/>
    <path d="M34 50h9"/>
    <path d="M53 50h9"/>
    <path d="M35 64c9 4 17 4 26 0"/>
    <path d="M32 77 24 88"/>
    <path d="M64 77 72 88"/>
    <path d="M22 57 11 52"/>
    <path d="M74 57 85 52"/>
    <path d="M67 67c9 2 13 8 11 15"/>
  </g>
</svg>
