<svg xmlns="http://www.w3.org/2000/svg" viewBox="0 0 128 140">
  <g fill="none" stroke="#111111" stroke-linecap="round" stroke-linejoin="round" stroke-width="5">
    <path d="M24 92c-2-34 11-57 39-67 29-10 49 1 58 34 8 31 0 54-24 67-22 12-43 14-57 3-10-8-15-20-16-37Z" fill="#ffb48c"/>
    <path d="M49 55c6-7 13-11 22-11 9 0 16 4 22 12"/>
    <path d="M52 65h2"/>
    <path d="M86 66h2"/>
    <path d="M54 90c12 7 24 7 36 0"/>
    <path d="M29 77 10 90"/>
    <path d="M103 80 121 94"/>
    <path d="M48 118 37 137"/>
    <path d="M81 118 90 138"/>
    <path d="M30 31c13-17 31-25 52-23"/>
  </g>
</svg>
