<svg xmlns="http://www.w3.org/2000/svg" viewBox="0 0 96 96">
  <g fill="none" stroke="#111111" stroke-linecap="round" stroke-linejoin="round" stroke-width="4">
    <path d="M17 56c0-22 14-36 31-36s31 14 31 36c0 13-8 22-17 22H34c-9 0-17-9-17-22Z" fill="#f7d26a"/>
    <path d="M31 31c-7 3-10 8-12 15"/>
    <path d="M65 31c7 3 10 8 12 15"/>
    <path d="M35 50h1"/>
    <path d="M60 50h1"/>
    <path d="M35 63c8 7 18 7 26 0"/>
    <path d="M27 19 21 8"/>
    <path d="M41 16 39 4"/>
    <path d="M55 16 57 4"/>
    <path d="M69 19 75 8"/>
  </g>
</svg>
